<?xml version="1.0" encoding="UTF-8"?>
<svg viewBox="0 0 600 800" xmlns="http://www.w3.org/2000/svg">
  <!-- Brain/Head -->
  <g id="head" name="head">
    <ellipse cx="300" cy="80" rx="70" ry="80" fill="#e8eaf6" stroke="#3f51b5" stroke-width="2"/>
    <text x="300" y="85" text-anchor="middle" fill="#1a237e" font-size="14" font-weight="500">Brain</text>
  </g>

  <!-- Lungs (left and right) -->
  <g id="lung" name="lung">
    <path d="M 200 200 Q 180 250 190 300 L 190 350 Q 190 380 210 390 L 230 380 Q 240 350 240 320 L 240 250 Q 240 220 230 200 Z"
          fill="#ffebee" stroke="#c62828" stroke-width="2"/>
    <path d="M 400 200 Q 420 250 410 300 L 410 350 Q 410 380 390 390 L 370 380 Q 360 350 360 320 L 360 250 Q 360 220 370 200 Z"
          fill="#ffebee" stroke="#c62828" stroke-width="2"/>
    <text x="215" y="290" text-anchor="middle" fill="#b71c1c" font-size="12" font-weight="500">Lung</text>
    <text x="385" y="290" text-anchor="middle" fill="#b71c1c" font-size="12" font-weight="500">Lung</text>
  </g>

  <!-- Heart -->
  <g id="heart" name="heart">
    <path d="M 300 240 L 280 260 Q 270 270 270 290 L 270 320 Q 270 340 285 350 L 300 360 L 315 350 Q 330 340 330 320 L 330 290 Q 330 270 320 260 Z"
          fill="#fce4ec" stroke="#d81b60" stroke-width="2"/>
    <text x="300" y="310" text-anchor="middle" fill="#880e4f" font-size="12" font-weight="500">Heart</text>
  </g>

  <!-- Liver -->
  <g id="liver" name="liver">
    <path d="M 250 380 L 380 380 Q 400 380 410 395 L 420 420 Q 425 440 420 460 L 410 485 Q 400 495 380 495 L 250 495 Q 230 495 220 485 L 210 460 Q 205 440 210 420 L 220 395 Q 230 380 250 380 Z"
          fill="#fff3e0" stroke="#e65100" stroke-width="2"/>
    <text x="315" y="445" text-anchor="middle" fill="#bf360c" font-size="14" font-weight="500">Liver</text>
  </g>

  <!-- Spleen -->
  <g id="spleen" name="spleen">
    <ellipse cx="180" cy="440" rx="35" ry="50" fill="#f3e5f5" stroke="#7b1fa2" stroke-width="2"/>
    <text x="180" y="445" text-anchor="middle" fill="#4a148c" font-size="11" font-weight="500">Spleen</text>
  </g>

  <!-- Kidneys (left and right) -->
  <g id="kidney" name="kidney">
    <ellipse cx="210" cy="520" rx="28" ry="45" fill="#e0f2f1" stroke="#00796b" stroke-width="2"/>
    <ellipse cx="390" cy="520" rx="28" ry="45" fill="#e0f2f1" stroke="#00796b" stroke-width="2"/>
    <text x="210" y="525" text-anchor="middle" fill="#004d40" font-size="10" font-weight="500">Kidney</text>
    <text x="390" y="525" text-anchor="middle" fill="#004d40" font-size="10" font-weight="500">Kidney</text>
  </g>

  <!-- Stomach -->
  <g id="abdomen" name="abdomen">
    <ellipse cx="280" cy="420" rx="45" ry="35" fill="#fff9c4" stroke="#f57f17" stroke-width="2"/>
    <text x="280" y="425" text-anchor="middle" fill="#f57f00" font-size="11" font-weight="500">Stomach</text>
  </g>

  <!-- Small Intestine -->
  <g id="small-intestine" name="small-intestine">
    <path d="M 260 510 Q 250 530 260 550 Q 270 570 290 575 Q 310 580 330 575 Q 350 570 360 550 Q 370 530 360 510 Q 350 490 330 485 Q 310 480 290 485 Q 270 490 260 510 Z"
          fill="#fce4ec" stroke="#c2185b" stroke-width="2"/>
    <text x="310" y="540" text-anchor="middle" fill="#880e4f" font-size="11" font-weight="500">Small Int.</text>
  </g>

  <!-- Large Intestine -->
  <g id="large-intestine" name="large-intestine">
    <path d="M 220 590 L 380 590 L 390 610 L 390 650 Q 390 670 375 680 L 225 680 Q 210 670 210 650 L 210 610 Z"
          fill="#ede7f6" stroke="#512da8" stroke-width="2"/>
    <text x="300" y="640" text-anchor="middle" fill="#311b92" font-size="12" font-weight="500">Large Intestine</text>
  </g>

  <!-- Spine (background) -->
  <g id="spine" name="spine">
    <rect x="295" y="170" width="10" height="520" fill="#cfd8dc" stroke="#455a64" stroke-width="1" opacity="0.5"/>
  </g>

  <!-- Chest cavity outline -->
  <g id="chest" name="chest">
    <path d="M 250 180 L 350 180 Q 420 180 440 240 L 450 380 Q 450 400 440 400 L 160 400 Q 150 400 150 380 L 160 240 Q 180 180 250 180 Z"
          fill="none" stroke="#90a4ae" stroke-width="1.5" stroke-dasharray="5,5" opacity="0.3"/>
  </g>

  <!-- Pelvis outline -->
  <g id="pelvis" name="pelvis">
    <ellipse cx="300" cy="650" rx="120" ry="60" fill="none" stroke="#90a4ae" stroke-width="1.5" stroke-dasharray="5,5" opacity="0.3"/>
  </g>
</svg>
